<svg width="144" height="38" viewBox="0 0 144 38" fill="none" xmlns="http://www.w3.org/2000/svg">
<g clip-path="url(#clip0_203_26483)">
<path d="M83.9119 10.5882L92.206 7.5L83.9119 4.32353V0L98.1177 5.73529V9.26471L83.9119 15V10.5882Z" fill="#A100FF"/>
<path d="M5.47059 37.9412C2.47059 37.9412 0 36.4412 0 33.0882V32.9118C0 28.8529 3.52941 27.4412 7.85294 27.4412H9.88235V26.6471C9.88235 24.9706 9.17647 24 7.41176 24C5.82353 24 5.02941 24.8823 4.94118 26.1176H0.529412C0.882353 22.4118 3.79412 20.6471 7.67647 20.6471C11.6471 20.6471 14.5588 22.3235 14.5588 26.4706V37.5882H10.0588V35.6471C9.17647 36.8823 7.67647 37.9412 5.47059 37.9412ZM9.88235 32.1176V30.5294H8.02941C5.73529 30.5294 4.58824 31.1471 4.58824 32.6471V32.8235C4.58824 33.9706 5.29412 34.7647 6.88235 34.7647C8.47059 34.6765 9.88235 33.7941 9.88235 32.1176ZM25.0588 37.9412C20.4706 37.9412 17.1176 35.1176 17.1176 29.4706V29.2059C17.1176 23.5588 20.6471 20.5588 25.0588 20.5588C28.8529 20.5588 31.9412 22.5 32.2941 26.8235H27.8824C27.6176 25.2353 26.7353 24.1765 25.1471 24.1765C23.2059 24.1765 21.7941 25.7647 21.7941 29.0294V29.5588C21.7941 32.9118 23.0294 34.4118 25.1471 34.4118C26.7353 34.4118 27.8824 33.2647 28.1471 31.4118H32.3824C32.1176 35.2941 29.5588 37.9412 25.0588 37.9412ZM42.3529 37.9412C37.7647 37.9412 34.4118 35.1176 34.4118 29.4706V29.2059C34.4118 23.5588 37.9412 20.5588 42.3529 20.5588C46.1471 20.5588 49.2353 22.5 49.5882 26.8235H45.1765C44.9118 25.2353 44.0294 24.1765 42.4412 24.1765C40.5 24.1765 39.0882 25.7647 39.0882 29.0294V29.5588C39.0882 32.9118 40.3235 34.4118 42.4412 34.4118C44.0294 34.4118 45.1765 33.2647 45.4412 31.4118H49.6765C49.4118 35.2941 46.8529 37.9412 42.3529 37.9412ZM59.7353 37.9412C54.9706 37.9412 51.7059 35.1176 51.7059 29.5588V29.2059C51.7059 23.647 55.1471 20.5588 59.6471 20.5588C63.7941 20.5588 67.2353 22.8529 67.2353 28.4118V30.4412H56.3824C56.5588 33.4412 57.8824 34.5882 59.8235 34.5882C61.5882 34.5882 62.5588 33.6176 62.9118 32.4706H67.2353C66.7059 35.5588 64.0588 37.9412 59.7353 37.9412ZM56.4706 27.3529H62.6471C62.5588 24.8823 61.4118 23.8235 59.5588 23.8235C58.1471 23.9118 56.8235 24.7059 56.4706 27.3529ZM70.0588 21H74.7353V23.4706C75.5294 21.8823 77.2059 20.6471 79.7647 20.6471C82.7647 20.6471 84.7941 22.5 84.7941 26.4706V37.5882H80.1177V27.1765C80.1177 25.2353 79.3235 24.3529 77.6471 24.3529C76.0588 24.3529 74.7353 25.3235 74.7353 27.4412V37.5882H70.0588V21ZM93.3529 15.9706V21H96.5294V24.4412H93.3529V32.2941C93.3529 33.5294 93.8824 34.1471 95.0294 34.1471C95.7353 34.1471 96.1765 34.0588 96.6176 33.8823V37.5C96.0882 37.6765 95.1176 37.8529 93.9706 37.8529C90.3529 37.8529 88.6765 36.1765 88.6765 32.8235V24.4412H86.7353V21H88.6765V17.9118L93.3529 15.9706ZM114 37.5882H109.412V35.1176C108.618 36.7059 107.029 37.9412 104.559 37.9412C101.559 37.9412 99.3529 36.0882 99.3529 32.2059V21H104.029V31.5882C104.029 33.5294 104.824 34.4118 106.412 34.4118C108 34.4118 109.324 33.3529 109.324 31.3235V21H114V37.5882ZM117.441 21H122.118V24.0882C123.088 21.8823 124.676 20.8235 127.147 20.8235V25.4118C123.971 25.4118 122.118 26.3823 122.118 29.1176V37.6765H117.441V21ZM136.588 37.9412C131.824 37.9412 128.559 35.1176 128.559 29.5588V29.2059C128.559 23.647 132 20.5588 136.5 20.5588C140.647 20.5588 144.088 22.8529 144.088 28.4118V30.4412H133.324C133.5 33.4412 134.824 34.5882 136.765 34.5882C138.529 34.5882 139.5 33.6176 139.853 32.4706H144.176C143.471 35.5588 140.912 37.9412 136.588 37.9412ZM133.235 27.3529H139.5C139.412 24.8823 138.265 23.8235 136.412 23.8235C135 23.9118 133.676 24.7059 133.235 27.3529Z" fill="black"/>
</g>
<defs>
<clipPath id="clip0_203_26483">
<rect width="144" height="37.9412" fill="white"/>
</clipPath>
</defs>
</svg>
