<svg width="144" height="40" viewBox="0 0 144 40" fill="none" xmlns="http://www.w3.org/2000/svg">
<path fill-rule="evenodd" clip-rule="evenodd" d="M73.82 16.6498H76.8577V11.2304H79.0127V9.04004H71.665V11.2304H73.82V16.6498ZM81.2527 16.6498L82.8011 12.099L84.3471 16.6498H87.3188L84.4061 9.04004H81.1937L78.2833 16.6498H81.2527ZM91.7822 16.6498H88.7444V11.2304H86.5894V9.04004H93.9372V11.2304H91.7822V16.6498ZM96.1771 16.6498L97.7255 12.099L99.2716 16.6498H102.243L99.3329 9.04004H96.1181L93.2078 16.6498H96.1771ZM126.694 24.7151C126.201 23.8843 125.705 22.9519 125.33 22.0904L125.294 22.0975C125.349 23.0865 125.368 24.092 125.368 25.3406V28.0621H124.084V20.4523H125.672L127.638 23.719C128.141 24.557 128.582 25.4421 128.934 26.2682L128.96 26.2611C128.861 25.2509 128.835 24.2714 128.835 23.1077V20.4523H130.121V28.0621H128.681L126.694 24.7151ZM118.43 25.9118H120.847L121.537 28.0621H123.028L120.557 20.4523H118.789L116.346 28.0621H117.784L118.43 25.9118ZM119.51 21.954L119.51 21.954C119.542 21.8175 119.574 21.684 119.606 21.557H119.63C119.658 21.6672 119.688 21.7822 119.718 21.9001C119.809 22.2545 119.906 22.6349 120.014 22.9873L120.614 24.8638H118.652L119.245 22.9826C119.341 22.659 119.427 22.2982 119.509 21.9558L119.509 21.9555L119.509 21.955L119.51 21.9547L119.51 21.954ZM93.9372 26.5443C94.3856 26.8039 95.0678 27.0305 95.7759 27.0305C96.661 27.0305 97.159 26.6151 97.159 25.9967C97.159 25.4231 96.772 25.0832 95.8113 24.7339C94.5532 24.2878 93.7507 23.6127 93.7507 22.5222C93.7507 21.276 94.794 20.3366 96.4439 20.3366C97.2676 20.3366 97.8719 20.5112 98.2684 20.7119L97.9356 21.833C97.6618 21.689 97.1307 21.4719 96.4155 21.4719C95.5328 21.4719 95.1575 21.9392 95.1575 22.3877C95.1575 22.9707 95.5989 23.2469 96.6138 23.634C97.9356 24.1367 98.5705 24.8023 98.5705 25.8952C98.5705 27.1202 97.6476 28.1824 95.6838 28.1824C94.879 28.1824 94.0434 27.951 93.628 27.6961L93.9372 26.5443ZM75.7979 21.4816C76.4187 21.4816 76.9262 21.6185 77.2802 21.779L77.5824 20.672C77.2991 20.5185 76.6547 20.3344 75.7389 20.3344C73.414 20.3344 71.665 21.845 71.665 24.347C71.665 26.6625 73.1355 28.1826 75.5501 28.1826C76.4706 28.1826 77.1953 28.0008 77.5233 27.8356L77.2944 26.7404C76.9285 26.9056 76.3408 27.0166 75.7767 27.0166C74.1032 27.0166 73.1284 25.9544 73.1284 24.2762C73.1284 22.4493 74.2448 21.4816 75.7979 21.4816ZM114.652 21.6207V28.0621H113.261V21.6207H111.087V20.4523H116.844V21.6207H114.652ZM142.433 20.4523L141.517 22.402C141.257 22.9543 141.047 23.4264 140.859 23.9126H140.835C140.627 23.398 140.429 22.9637 140.172 22.4043L139.265 20.4523H137.674L140.082 24.8945V28.0621H141.472V24.8567L144 20.4547H142.433V20.4523ZM77.9883 24.3162C77.9883 21.9795 79.4635 20.3296 81.6114 20.3296C83.8302 20.3296 85.1378 22.0054 85.1425 24.1817C85.1425 26.7308 83.5965 28.1895 81.5123 28.1895H81.5005C79.3479 28.1895 77.9883 26.5444 77.9883 24.3162ZM81.5454 27.0754H81.5572C82.9002 27.0754 83.6602 25.8245 83.6626 24.2336C83.6626 22.7985 82.9498 21.4413 81.5619 21.4413C80.174 21.4413 79.4423 22.7655 79.4447 24.2832C79.4399 25.7961 80.2165 27.0754 81.5454 27.0754ZM135.451 21.4816C136.072 21.4816 136.579 21.6185 136.933 21.779L137.235 20.672C136.952 20.5185 136.308 20.3344 135.392 20.3344C133.067 20.3344 131.318 21.845 131.318 24.347C131.318 26.6625 132.788 28.1826 135.203 28.1826C136.124 28.1826 136.848 28.0032 137.176 27.8356L136.947 26.7404C136.582 26.9056 135.994 27.0166 135.43 27.0166C133.756 27.0166 132.781 25.9544 132.781 24.2762C132.781 22.4493 133.898 21.4816 135.451 21.4816ZM107.339 20.4523H108.729V26.8961H111.859V28.0621H107.339V20.4523ZM105.758 24.8V20.4547H104.368V24.8921C104.368 26.3838 103.766 27.0707 102.765 27.0707C101.823 27.0707 101.205 26.3791 101.205 24.8921V20.4547H99.8145V24.8095C99.8145 27.2029 100.959 28.1919 102.713 28.1919C104.552 28.1895 105.758 27.1439 105.758 24.8ZM91.0812 20.4523H92.3676H92.3699V28.0644H90.9301L88.9427 24.7175C88.4494 23.8866 87.9537 22.9543 87.5784 22.0928L87.543 22.0998C87.5973 23.0865 87.6162 24.092 87.6162 25.3406V28.0621H86.3298V20.4523H87.9183L89.8845 23.719C90.3872 24.557 90.8286 25.4421 91.1803 26.2682L91.2063 26.2611C91.1071 25.2509 91.0812 24.2714 91.0812 23.1077V20.4523ZM98.3156 31.8668H96.9254V39.4766H98.3156V31.8668ZM87.3684 35.8771V35.9078C87.916 36.1155 88.2322 36.6371 88.4211 37.3712C88.4517 37.4926 88.4818 37.6127 88.5113 37.7304L88.5137 37.74L88.5138 37.7401C88.7128 38.5342 88.8848 39.2205 89.0159 39.4766H87.5997C87.484 39.2571 87.3023 38.634 87.0922 37.6945C86.875 36.7103 86.5163 36.3916 85.7326 36.3727H85.0387V39.4766H83.6697V32.0297C84.196 31.9329 84.8192 31.8668 85.7609 31.8668C86.7027 31.8668 87.5808 32.0509 88.0906 32.4758C88.5037 32.8204 88.7397 33.3444 88.7397 33.9912C88.7397 34.9636 88.0788 35.6245 87.3684 35.8771ZM85.0387 35.3602H85.8554C86.7901 35.3602 87.366 34.8668 87.366 34.1163C87.366 33.2925 86.7877 32.9078 85.8955 32.9054C85.4588 32.9054 85.1779 32.9384 85.0387 32.9738V35.3602ZM93.5171 35.346C93.222 36.2689 92.9459 37.1989 92.7429 38.0958H92.7193C92.521 37.1753 92.2613 36.2854 91.9734 35.3248L90.9348 31.8645H89.4195L91.8813 39.4743H93.4746L96.104 31.8645H94.6241L93.5171 35.346ZM110.802 36.0989H107.934V38.3318H111.139V39.4742H106.544V31.8668H110.972V33.0093H107.934V34.966H110.802V36.0989ZM103.643 32.8937C104.264 32.8937 104.771 33.0306 105.125 33.1911L105.427 32.0841C105.144 31.9307 104.5 31.7466 103.584 31.7466C101.259 31.7466 99.51 33.2572 99.51 35.7592C99.51 38.0747 100.98 39.5948 103.395 39.5948C104.316 39.5948 105.04 39.4154 105.368 39.2478L105.139 38.1526C104.771 38.3178 104.186 38.4288 103.622 38.4288C101.948 38.4288 100.973 37.3666 100.973 35.6884C100.973 33.8615 102.09 32.8937 103.643 32.8937ZM73.1945 33.8001C73.1945 34.3831 73.6335 34.6593 74.6508 35.0464C75.9726 35.5491 76.6075 36.2147 76.6052 37.3123C76.6052 38.5373 75.6823 39.5995 73.7185 39.5995C72.9136 39.5995 72.078 39.3681 71.6626 39.1132L71.9718 37.9614C72.4203 38.221 73.1024 38.4476 73.8105 38.4476C74.698 38.4476 75.1937 38.0322 75.1937 37.4091C75.1937 36.8355 74.8066 36.4956 73.8459 36.1463C72.5879 35.7002 71.7853 35.0251 71.7853 33.9346C71.7853 32.6884 72.8286 31.7489 74.4785 31.7489C75.3023 31.7489 75.9065 31.9236 76.303 32.1242L75.9702 33.2454C75.6964 33.1014 75.1654 32.8843 74.4502 32.8843C73.5698 32.8843 73.1945 33.3516 73.1945 33.8001ZM79.2464 36.0989H82.1142V34.966H79.2464V33.0093H82.2865V31.8668H77.8561V39.4742H82.4541V38.3318H79.2464V36.0989ZM113.554 33.8001C113.554 34.3831 113.995 34.6593 115.01 35.0464C116.332 35.5491 116.967 36.2147 116.965 37.3123C116.965 38.5373 116.042 39.5995 114.078 39.5995C113.273 39.5995 112.438 39.3681 112.022 39.1132L112.331 37.9614C112.78 38.221 113.462 38.4476 114.17 38.4476C115.058 38.4476 115.553 38.0322 115.553 37.4091C115.553 36.8355 115.166 36.4956 114.205 36.1463C112.947 35.7002 112.145 35.0251 112.145 33.9346C112.145 32.6884 113.188 31.7489 114.838 31.7489C115.662 31.7489 116.266 31.9236 116.663 32.1242L116.33 33.2454C116.056 33.1014 115.525 32.8843 114.81 32.8843C113.929 32.8843 113.554 33.3516 113.554 33.8001Z" fill="#007DC5"/>
<path d="M0 14.2447C0 10.7986 2.23997 8.73092 5.51377 8.73092V2.87254C5.51377 1.14949 4.36428 0 2.75688 0C1.14949 0 0 1.14949 0 2.87254V14.2447V14.2447Z" fill="url(#paint0_linear_23357_57931)"/>
<path d="M9.76475 39.6869C11.1432 39.6869 12.406 39.4579 13.5555 39.0543C7.75374 40.0315 5.51377 36.0685 5.51377 31.5886V13.2109H12.2337C13.7844 13.2109 14.8183 12.2927 14.8183 10.9709C14.8183 9.64913 13.7844 8.73096 12.2337 8.73096H5.51377C2.23997 8.73096 0 10.7986 0 14.2447V30.0378C0 36.3565 3.61841 39.6869 9.76475 39.6869Z" fill="url(#paint1_linear_23357_57931)"/>
<path d="M13.5554 39.0544C15.852 38.1928 17.634 36.5854 18.7812 34.2298L16.1966 29.5776C15.0471 33.0237 13.0385 34.8624 10.2816 34.8624C7.40903 34.8624 5.51367 33.196 5.51367 29.4053V31.5886C5.51367 36.0685 7.75364 40.0316 13.5554 39.0544Z" fill="url(#paint2_linear_23357_57931)"/>
<path d="M37.1588 38.1361C24.0636 40.0881 19.9282 33.0826 19.9282 24.0661C19.9282 17.5185 23.9479 13.0386 29.7496 13.0386C31.874 13.0386 33.656 13.4988 35.2634 14.2447C36.0093 14.5893 36.6419 14.705 37.2154 14.705C38.5939 14.705 39.512 13.7868 39.512 12.4083C39.512 11.5468 38.9951 10.6853 37.789 10.1117C35.6057 9.02124 32.7921 8.38867 29.7473 8.38867C20.6717 8.38867 14.4121 14.8206 14.4121 24.1817C14.4121 33.3706 20.4428 39.7459 30.1485 39.7459C32.7945 39.7435 35.0911 39.2266 37.1588 38.1361Z" fill="url(#paint3_linear_23357_57931)"/>
<path d="M14.417 24.1793C14.417 14.8182 20.6766 8.38623 29.7522 8.38623C32.797 8.38623 35.6105 9.0188 37.7939 10.1093C39 10.6828 39.5169 11.5444 39.5169 12.4059C39.5169 13.7843 38.5987 14.7025 37.2203 14.7025C36.6467 14.7025 36.0142 14.5869 35.2683 14.2422C33.3163 13.3241 31.4209 13.0361 29.7545 13.0361C21.7671 13.0385 14.417 18.092 14.417 24.1793Z" fill="url(#paint4_linear_23357_57931)"/>
<path d="M48.7036 10.2251C48.1867 10.742 47.8987 11.3746 47.8987 12.1205C47.8987 14.0158 49.6784 16.8293 53.8137 19.7019L58.5226 22.9757C61.9687 25.388 63.3472 27.6846 63.3472 31.1307C63.3472 33.5996 62.37 35.7263 60.7626 37.218C61.3361 36.7011 61.6808 36.0119 61.6808 35.0937C61.6808 33.0827 59.6697 29.9246 55.3621 26.9387L51.0545 23.9529C47.4361 21.4249 46.001 19.0717 46.001 15.8545C46.001 13.9592 46.6902 12.2361 47.8397 10.9733C48.13 10.683 48.4156 10.4541 48.7036 10.2251Z" fill="url(#paint5_linear_23357_57931)"/>
<path d="M44.9717 36.0119C44.9717 36.9301 45.4319 37.6783 46.6381 38.2519C48.3045 39.0567 51.0024 39.746 53.4146 39.746C56.4595 39.746 58.9851 38.8278 60.7671 37.218C61.3407 36.7011 61.6853 36.0119 61.6853 35.0937C61.6853 33.0827 59.6743 29.9246 55.3666 26.9387C57.3186 28.3172 58.1235 29.4667 58.1235 31.1307C58.1235 33.5996 56.1715 35.266 53.3556 35.266C50.6554 35.266 48.3588 33.8876 47.096 33.8876C45.8332 33.8876 44.9717 34.7491 44.9717 36.0119Z" fill="url(#paint6_linear_23357_57931)"/>
<path d="M53.8158 19.7018C51.9771 18.38 51.1746 17.1739 51.1746 15.7388C51.1746 13.9001 52.6687 12.753 54.793 12.753C57.4932 12.753 58.756 14.0157 60.3634 14.0157C61.6262 14.0157 62.4877 13.1542 62.4877 11.8914C62.4877 10.9733 62.0275 10.225 60.8213 9.65146C58.926 8.73328 56.8583 8.38867 54.6183 8.38867C52.2627 8.38867 50.195 9.07789 48.7033 10.2274C48.1864 10.7443 47.8984 11.3769 47.8984 12.1227C47.8984 14.0157 49.6805 16.8293 53.8158 19.7018Z" fill="url(#paint7_linear_23357_57931)"/>
<path d="M19.9307 24.0661C19.9307 33.0827 24.066 40.0905 37.1612 38.1362C41.3532 35.9529 44.3414 31.5319 46.4067 24.7554L47.6128 20.7923C46.4633 19.2982 46.0054 17.6342 46.0054 15.8521C46.0054 13.9568 46.6946 12.2337 47.8441 10.9709C46.1211 12.8097 44.686 15.5075 43.5365 19.2982L42.2147 23.6625C39.8591 31.3596 36.1274 35.0347 30.3256 35.0347C23.9503 35.0347 19.9307 30.6137 19.9307 24.0661Z" fill="url(#paint8_linear_23357_57931)"/>
<defs>
<linearGradient id="paint0_linear_23357_57931" x1="2.75762" y1="1.51695" x2="2.75762" y2="12.8886" gradientUnits="userSpaceOnUse">
<stop stop-color="#FFC708"/>
<stop offset="0.9997" stop-color="#F05731"/>
<stop offset="1" stop-color="#F05731"/>
</linearGradient>
<linearGradient id="paint1_linear_23357_57931" x1="9.00831" y1="10.2553" x2="6.03453" y2="31.7714" gradientUnits="userSpaceOnUse">
<stop stop-color="#F80000"/>
<stop offset="1" stop-color="#EE3984"/>
</linearGradient>
<linearGradient id="paint2_linear_23357_57931" x1="4.87928" y1="35.7084" x2="20.4484" y2="30.7682" gradientUnits="userSpaceOnUse">
<stop stop-color="#EE3984"/>
<stop offset="0.9997" stop-color="#7800DA"/>
<stop offset="1" stop-color="#7800DA"/>
</linearGradient>
<linearGradient id="paint3_linear_23357_57931" x1="26.0428" y1="16.2254" x2="31.7315" y2="36.2856" gradientUnits="userSpaceOnUse">
<stop stop-color="#FF0000"/>
<stop offset="0.9994" stop-color="#EE3984"/>
<stop offset="1" stop-color="#EE3984"/>
</linearGradient>
<linearGradient id="paint4_linear_23357_57931" x1="14.4164" y1="16.2833" x2="39.5145" y2="16.2833" gradientUnits="userSpaceOnUse">
<stop stop-color="#FFC708"/>
<stop offset="1" stop-color="#FA3B00"/>
</linearGradient>
<linearGradient id="paint5_linear_23357_57931" x1="46.0046" y1="23.721" x2="63.3492" y2="23.721" gradientUnits="userSpaceOnUse">
<stop stop-color="#FF0000"/>
<stop offset="1" stop-color="#EE3984"/>
</linearGradient>
<linearGradient id="paint6_linear_23357_57931" x1="59.9955" y1="32.0926" x2="44.7258" y2="36.1346" gradientUnits="userSpaceOnUse">
<stop stop-color="#EE3984"/>
<stop offset="1" stop-color="#7800DA"/>
</linearGradient>
<linearGradient id="paint7_linear_23357_57931" x1="47.8996" y1="14.0436" x2="62.4875" y2="14.0436" gradientUnits="userSpaceOnUse">
<stop stop-color="#FFC708"/>
<stop offset="1" stop-color="#F05731"/>
</linearGradient>
<linearGradient id="paint8_linear_23357_57931" x1="28.7771" y1="32.6931" x2="39.406" y2="15.3276" gradientUnits="userSpaceOnUse">
<stop stop-color="#EE3984"/>
<stop offset="1" stop-color="#7800DA"/>
</linearGradient>
</defs>
</svg>
